<svg width="13" height="7" viewBox="0 0 13 7" fill="none" xmlns="http://www.w3.org/2000/svg">
<path d="M8.26666 5.83244L12.0917 2.00744C12.2469 1.8513 12.334 1.64009 12.334 1.41994C12.334 1.19978 12.2469 0.988571 12.0917 0.832436C12.0142 0.754329 11.922 0.692334 11.8205 0.650027C11.7189 0.60772 11.61 0.585937 11.5 0.585937C11.39 0.585937 11.2811 0.60772 11.1795 0.650027C11.078 0.692334 10.9858 0.754329 10.9083 0.832436L7.09166 4.66577C7.01419 4.74388 6.92202 4.80587 6.82047 4.84818C6.71892 4.89049 6.61 4.91227 6.49999 4.91227C6.38998 4.91227 6.28106 4.89049 6.17951 4.84818C6.07796 4.80587 5.98579 4.74388 5.90832 4.66577L2.09165 0.832436C1.93584 0.675516 1.72407 0.58692 1.50294 0.586139C1.2818 0.585357 1.06941 0.672455 0.912489 0.82827C0.755568 0.984084 0.666972 1.19585 0.666191 1.41699C0.665409 1.63813 0.752508 1.85052 0.908322 2.00744L4.73332 5.83244C5.20207 6.3006 5.83749 6.56357 6.49999 6.56357C7.16249 6.56357 7.7979 6.3006 8.26666 5.83244Z" fill="#4A5677"/>
</svg>
